Coordinates
version=1
nRows=24
nColumns=38
inDegrees=no

Units are S.I. units (second, meters, Newtons, ...)
If the header above contains a line with 'inDegrees', this indicates whether rotational values are in degrees (yes) or radians (no).

endheader
time	pelvis_tilt	pelvis_list	pelvis_rotation	pelvis_tx	pelvis_ty	pelvis_tz	hip_flexion_r	hip_adduction_r	hip_rotation_r	knee_angle_r	ankle_angle_r	subtalar_angle_r	mtp_angle_r	hip_flexion_l	hip_adduction_l	hip_rotation_l	knee_angle_l	ankle_angle_l	subtalar_angle_l	mtp_angle_l	lumbar_extension	lumbar_bending	lumbar_rotation	arm_flex_r	arm_add_r	arm_rot_r	elbow_flex_r	pro_sup_r	wrist_flex_r	wrist_dev_r	arm_flex_l	arm_add_l	arm_rot_l	elbow_flex_l	pro_sup_l	wrist_flex_l	wrist_dev_l
2.19	0.45299	1.33439	-1.8683	0.521267	-0.267502	0.919392	0.0329247	-0.265969	-0.631939	0.748673	-0.0449296	0	0	0.177764	0.241807	0.237686	1.53718	-0.042803	0	0	-0.210484	0.0418613	0.206468	-0.329304	-0.601363	-0.301264	1.649	0.7892	0	0	0.53012	-0.372944	0.669742	0.977019	0.736926	0	0
2.2	0.47016	1.33334	-1.89083	0.52036	-0.277698	0.920221	0.0187419	-0.268184	-0.634306	0.744861	-0.0390396	0	0	0.20159	0.248875	0.228364	1.51961	-0.0353991	0	0	-0.210649	0.0358192	0.213304	-0.330086	-0.601682	-0.302283	1.65016	0.787056	0	0	0.533201	-0.373839	0.67297	0.977739	0.736565	0	0
2.21	0.486382	1.33224	-1.91314	0.519409	-0.287989	0.920877	0.00492886	-0.269933	-0.634706	0.740695	-0.0313577	0	0	0.223353	0.253863	0.218168	1.49577	-0.0275746	0	0	-0.210269	0.0301945	0.221602	-0.331949	-0.601761	-0.304296	1.65159	0.784411	0	0	0.533969	-0.37054	0.66883	0.976371	0.7371	0	0
2.22	0.500764	1.33203	-1.93315	0.518545	-0.298343	0.921296	-0.00833741	-0.269682	-0.634043	0.734692	-0.0323957	0	0	0.244109	0.25658	0.208927	1.46639	-0.0222899	0	0	-0.209512	0.0249384	0.227105	-0.330866	-0.601632	-0.303667	1.65211	0.785136	0	0	0.538005	-0.377569	0.679869	0.981515	0.734194	0	0
2.23	0.511555	1.33113	-1.95043	0.517657	-0.308691	0.921722	-0.0230874	-0.267489	-0.630727	0.725283	-0.0229454	0	0	0.261832	0.256553	0.197781	1.43045	-0.0186065	0	0	-0.209343	0.0209728	0.235694	-0.332967	-0.602026	-0.305774	1.65396	0.782288	0	0	0.534503	-0.370411	0.663952	0.979276	0.744084	0	0
2.24	0.517843	1.32802	-1.96308	0.516823	-0.318893	0.922139	-0.040684	-0.265068	-0.6275	0.714868	-0.0133461	0	0	0.274783	0.25536	0.186984	1.3886	-0.0196684	0	0	-0.212807	0.0163108	0.242317	-0.33224	-0.602821	-0.306018	1.65534	0.780403	0	0	0.544544	-0.382414	0.691277	0.986833	0.72259	0	0
2.25	0.527805	1.32736	-1.97819	0.516225	-0.329194	0.922224	-0.0549758	-0.263704	-0.625988	0.707088	-0.0111834	0	0	0.287986	0.254778	0.180101	1.34181	-0.0192648	0	0	-0.212783	0.0124932	0.248116	-0.332461	-0.602803	-0.306875	1.65673	0.780369	0	0	0.545104	-0.384197	0.691903	0.990237	0.723488	0	0
2.26	0.53745	1.32768	-1.99225	0.515748	-0.339509	0.92217	-0.0687377	-0.261501	-0.624032	0.698163	-0.00526422	0	0	0.299432	0.253863	0.176064	1.28899	-0.0221857	0	0	-0.210598	0.0108772	0.257379	-0.338226	-0.60171	-0.313487	1.66012	0.779824	0	0	0.530366	-0.358107	0.63965	0.979267	0.743515	0	0
2.27	0.537759	1.32543	-1.99609	0.515281	-0.34959	0.922183	-0.0874009	-0.256919	-0.621423	0.685074	0.00290843	0	0	0.304761	0.251285	0.173322	1.23198	-0.0315019	0	0	-0.214143	0.00877277	0.260429	-0.336046	-0.603107	-0.313054	1.66163	0.776026	0	0	0.531449	-0.361835	0.640174	0.983987	0.753326	0	0
2.28	0.401315	1.29292	-1.89826	0.509639	-0.363753	0.924841	-0.159892	-0.217076	-0.59567	0.632068	0.00294561	0	0	0.292753	0.00807736	-0.287223	1.21069	-0.127945	0	0	-0.256096	0.0206383	0.298111	-0.339981	-0.609001	-0.313578	1.66984	0.768121	0	0	0.552492	-0.394469	0.707901	1.00589	0.709079	0	0
2.29	0.552909	1.33091	-2.01381	0.515075	-0.370127	0.921012	-0.112418	-0.250176	-0.623246	0.668841	0.021721	0	0	0.318037	0.24779	0.177652	1.10771	-0.0370797	0	0	-0.206317	0.00871122	0.268412	-0.340493	-0.600763	-0.320647	1.66475	0.775733	0	0	0.504544	-0.32028	0.546108	0.971805	0.805763	0	0
2.3	0.558325	1.33122	-2.01831	0.515026	-0.380331	0.920151	-0.128595	-0.247726	-0.628759	0.661572	0.0267251	0	0	0.317219	0.246774	0.181778	1.03922	-0.0407922	0	0	-0.207263	0.00457756	0.261513	-0.330419	-0.60322	-0.311081	1.66191	0.771788	0	0	0.549947	-0.391877	0.698928	1.00162	0.716595	0	0
2.31	0.423719	1.30076	-1.92253	0.510014	-0.395025	0.922404	-0.199146	-0.212756	-0.603666	0.609746	0.0247566	0	0	0.303678	0.0131354	-0.331161	1.02206	-0.144437	0	0	-0.245187	0.0175076	0.302235	-0.340284	-0.607746	-0.317103	1.67177	0.764084	0	0	0.551113	-0.397302	0.70833	1.01144	0.710209	0	0
2.32	0.427842	1.30326	-1.92667	0.510374	-0.40558	0.921539	-0.214843	-0.207968	-0.603972	0.595345	0.0287106	0	0	0.296458	0.00944532	-0.364268	0.945997	-0.147768	0	0	-0.242041	0.0176698	0.302957	-0.340402	-0.606123	-0.318851	1.67203	0.766356	0	0	0.549288	-0.397585	0.706551	1.01322	0.713325	0	0
2.33	0.571856	1.34695	-2.02716	0.515756	-0.411632	0.916661	-0.165894	-0.225782	-0.63384	0.625464	0.0443976	0	0	0.306414	0.23231	0.186602	0.799176	-0.0407768	0	0	-0.190103	0.00918305	0.259882	-0.329518	-0.595467	-0.316271	1.66143	0.78101	0	0	0.546196	-0.394945	0.69778	1.00739	0.718583	0	0
2.34	0.573769	1.35462	-2.02598	0.516199	-0.422374	0.915052	-0.176617	-0.216742	-0.637522	0.615492	0.0514417	0	0	0.299344	0.222661	0.17785	0.710218	-0.0391981	0	0	-0.1814	0.0124087	0.257247	-0.328368	-0.59167	-0.317366	1.6597	0.785709	0	0	0.543495	-0.396635	0.696828	1.00957	0.719712	0	0
2.35	0.565359	1.36075	-2.01525	0.516613	-0.43323	0.91353	-0.190358	-0.205653	-0.638957	0.602831	0.0574182	0	0	0.288209	0.208923	0.153989	0.616973	-0.047208	0	0	-0.175515	0.0169967	0.255963	-0.328505	-0.587855	-0.320246	1.65922	0.79142	0	0	0.541261	-0.397535	0.695965	1.01176	0.721673	0	0
2.36	0.555964	1.36959	-2.00398	0.51723	-0.444383	0.911812	-0.200786	-0.194124	-0.639352	0.591682	0.0612974	0	0	0.27899	0.193885	0.120044	0.524594	-0.0587033	0	0	-0.165098	0.0252414	0.260676	-0.337855	-0.583273	-0.330599	1.66229	0.798185	0	0	0.511609	-0.355254	0.607163	0.994797	0.77318	0	0
2.37	0.537892	1.36983	-1.98385	0.517638	-0.455498	0.910441	-0.221037	-0.185294	-0.643369	0.580638	0.0637108	0	0	0.258775	0.181108	0.0730548	0.430317	-0.083507	0	0	-0.16659	0.0264551	0.255623	-0.333178	-0.581169	-0.32818	1.66098	0.805889	0	0	0.540019	-0.398433	0.699803	1.01438	0.722909	0	0
2.38	0.532799	1.3752	-1.97568	0.518546	-0.466838	0.908658	-0.232682	-0.17909	-0.648058	0.57687	0.0667031	0	0	0.244365	0.173164	0.0326585	0.344874	-0.0944226	0	0	-0.158887	0.029992	0.253887	-0.335783	-0.580833	-0.328791	1.66065	0.807466	0	0	0.536544	-0.395594	0.694954	1.0126	0.727829	0	0
2.39	0.530369	1.37796	-1.97092	0.519497	-0.478253	0.907067	-0.244953	-0.17577	-0.651687	0.57643	0.0683475	0	0	0.225538	0.169131	-0.00647633	0.261064	-0.116216	0	0	-0.153928	0.0312829	0.25139	-0.336409	-0.579951	-0.328482	1.65997	0.809387	0	0	0.537821	-0.400049	0.704728	1.01444	0.723122	0	0
2.4	0.531448	1.38174	-1.96983	0.52061	-0.489809	0.905309	-0.253811	-0.173883	-0.653693	0.580704	0.07003	0	0	0.209094	0.167887	-0.0351741	0.189428	-0.139363	0	0	-0.147526	0.0327665	0.248956	-0.338122	-0.578918	-0.328675	1.66026	0.811516	0	0	0.535614	-0.401258	0.706095	1.01515	0.722175	0	0
2.41	0.535788	1.38446	-1.97263	0.52179	-0.501428	0.903625	-0.261381	-0.174543	-0.654324	0.589739	0.0723769	0	0	0.193032	0.168028	-0.0549534	0.127148	-0.173112	0	0	-0.141789	0.0338539	0.247606	-0.340928	-0.57658	-0.33079	1.6616	0.815736	0	0	0.525049	-0.391808	0.68255	1.01138	0.73455	0	0
2.42	0.5389	1.38751	-1.973	0.523156	-0.512823	0.901831	-0.267519	-0.174157	-0.651065	0.59893	0.072157	0	0	0.189137	0.168248	-0.0569974	0.118862	-0.176751	0	0	-0.137261	0.0343167	0.24206	-0.340188	-0.576228	-0.328434	1.66232	0.817227	0	0	0.527541	-0.402313	0.698565	1.01728	0.731722	0	0
